<?xml version="1.0"?>
<svg xmlns="http://www.w3.org/2000/svg" xmlns:xlink="http://www.w3.org/1999/xlink" version="1.1" id="Capa_1" x="0px" y="0px" viewBox="0 0 416.42 416.42" style="enable-background:new 0 0 416.42 416.42;" xml:space="preserve" width="512px" height="512px" class=""><g><path style="fill:#66A22E" d="M401.241,94.316h-98.22v147.331c0,8.882-6.792,15.673-15.673,15.673H146.286v47.02  c0,8.882,6.792,15.673,15.673,15.673h114.416l75.755,53.812c2.612,2.09,5.747,3.135,8.882,3.135c2.612,0,4.702-0.522,7.314-1.567  c5.224-2.612,8.359-7.837,8.359-14.106v-41.273h24.033c8.882,0,15.673-6.792,15.673-15.673V109.99  C416.914,101.108,410.122,94.316,401.241,94.316z" data-original="#D4E1F4" class="active-path" data-old_color="#D4E1F4"/><path style="fill:#3C8132" d="M289.437,259.41c8.882,0,15.673-6.792,15.673-15.673V96.406V55.132  c0-8.882-6.792-15.673-15.673-15.673H15.673C6.792,39.459,0,46.251,0,55.132v188.604c0,8.882,6.792,15.673,15.673,15.673H51.2  v52.767c0,6.269,3.657,12.016,9.404,14.106c2.09,1.045,4.18,1.567,6.269,1.567c3.657,0,7.837-1.567,10.449-4.18l69.486-64.261h1.045  C147.853,259.41,289.437,259.41,289.437,259.41z" data-original="#4DCFE0" class="" data-old_color="#4DCFE0"/></g> </svg>
