<svg 
  xmlns="http://www.w3.org/2000/svg" 
  viewBox="0 0 158.85 203.22" 
  role="img"
  aria-labelledby="clearEnglishTitle clearEnglishDesc" >
  <title id="clearEnglishTitle">Clear English Standard</title>
  <desc id="clearEnglishDesc">Plain Language Commission Certificate of Clear Enligh Standard</desc>
  <defs>
    <linearGradient id="a" x1="112.33" x2="136.21" y1="47.34" y2="23.46" gradientUnits="userSpaceOnUse">
      <stop offset="0" stop-color="#fff"/>
      <stop offset=".1" stop-color="#fafafa" stop-opacity=".99"/>
      <stop offset=".23" stop-color="#ececec" stop-opacity=".97"/>
      <stop offset=".38" stop-color="#d5d4d4" stop-opacity=".92"/>
      <stop offset=".53" stop-color="#b4b3b3" stop-opacity=".86"/>
      <stop offset=".69" stop-color="#8a8888" stop-opacity=".79"/>
      <stop offset=".85" stop-color="#585555" stop-opacity=".7"/>
      <stop offset="1" stop-color="#231f20" stop-opacity=".6"/>
    </linearGradient>
  </defs>
  <path fill="#231f20" fill-rule="evenodd" d="M0 0h112.81v47.71h46.03v155.51H0V0z"/>
  <path fill="url(#a)" d="M112.76 0l46.07 47.77h-46.07V0z"/>
  <path fill="#00ac69" d="M0 111.6h158.85v91.56H0z"/>
  <path fill="#fff" d="M17.23 38.3h-1.84v6.32h-3v-15h4.74a17.16 17.16 0 012.36.16 3.85 3.85 0 013.42 4c-.03 2.83-2.12 4.52-5.68 4.52zm1.85-6a3.16 3.16 0 00-2.14-.5h-1.55v4.32h1.37c1.94 0 3-.81 3-2.25a2.05 2.05 0 00-.63-1.53zm6.05 12.32v-15h3v12.57h6.5v2.43zm22.37 0l-1.73-4.41h-6l-1.71 4.41h-3l6.22-15h3.17l6.28 15zm-4.75-12.1l-2.14 5.52h4.32zm9.76 12.1v-15h3.06v15zm16.12 0l-6.94-9.92v9.92H58.9v-15h2.86l7 10.06V29.61h2.79v15zm-56.28 27v-15h3V69.2h6.5v2.43zm22.41 0l-1.73-4.41h-6l-1.71 4.41h-3l6.21-15h3.2l6.27 15zm-4.75-12.1l-2.13 5.52h4.32zm19.49 12.1l-6.93-9.92v9.92h-2.79v-15h2.86l7 10.06V56.61h2.79v15zm13.86.34c-4.91 0-8.33-3.13-8.33-7.65s3.74-8 9-8a11 11 0 014.55.86l-.75 2.18a9 9 0 00-3.53-.65c-3.65 0-6 2.2-6 5.53a5.12 5.12 0 005.46 5.34 5.71 5.71 0 002-.32v-4.84h3v6.44a11.89 11.89 0 01-5.4 1.11zm20.43-3.51c-.83 2.14-3.19 3.47-6.17 3.47a7 7 0 01-4.68-1.49c-1.21-1.06-1.57-2.25-1.57-5.22v-8.6h3v8.6a7.09 7.09 0 00.2 2.23 2.91 2.91 0 003.08 2 4.31 4.31 0 002.64-.79c.87-.65 1.17-1.51 1.17-3.51v-8.53h2.76v8.55a9.1 9.1 0 01-.43 3.29zm14.6 3.17l-1.73-4.41h-6l-1.71 4.41h-3l6.21-15h3.17l6.28 15zm-4.75-12.1l-2.13 5.52h4.32zm16.49 12.44c-4.91 0-8.33-3.13-8.33-7.65s3.74-8 9-8a11 11 0 014.54.86l-.74 2.18a9 9 0 00-3.53-.65c-3.65 0-6.06 2.2-6.06 5.53a5.13 5.13 0 005.47 5.34 5.62 5.62 0 002-.32v-4.84h3v6.44a11.82 11.82 0 01-5.35 1.11zm8.1-.34v-15h9.48v2.3h-6.44v3.82h6.08v2.23h-6.08v4.23h6.86v2.43zM22.46 98.6a10.7 10.7 0 01-2.73.36c-4.75 0-8.08-3.15-8.08-7.67s3.67-8 8.76-8a12 12 0 014.48.86l-.76 2.16c-.36-.11-.65-.2-.83-.24a10.73 10.73 0 00-2.63-.34c-3.51 0-5.88 2.16-5.88 5.38a5 5 0 005.18 5.29 7.91 7.91 0 001.91-.23 8.31 8.31 0 002.3-.9l1.06 2.12a9.43 9.43 0 01-2.78 1.21zm11.08.34c-4.25 0-7.33-3.22-7.33-7.68a7.61 7.61 0 017.72-8 7.24 7.24 0 017.36 7.61 7.71 7.71 0 01-7.75 8.07zm4.55-8c0-3-1.94-5.13-4.41-5.13s-4.3 2.14-4.3 5.11 1.82 5.36 4.37 5.36 4.38-2.07 4.38-5.04zm20.04 7.68l-1.32-10.26-3.68 10.26h-2.56l-3.72-10.26-1.21 10.26h-2.81l2.1-15h3.2l3.92 10.76 3.73-10.76h3.13l2.18 15zm19.31 0l-1.31-10.26-3.62 10.26h-2.58l-3.72-10.26L65 98.62h-2.82l2.1-15h3.17l3.92 10.76 3.76-10.77h3.13l2.18 15zm5.2 0v-15h3.06v15zm9.74.3a16.21 16.21 0 01-4.19-.54l.48-2.34a16.68 16.68 0 003.39.33c2.25 0 3.67-.78 3.67-2.07 0-.9-.63-1.39-2.72-2.18a9.5 9.5 0 01-3.29-1.73 3.76 3.76 0 01-1.17-2.73c0-2.63 2.43-4.36 6.17-4.36a12 12 0 013.51.45l-.43 2.23a12.24 12.24 0 00-2.76-.27c-2 0-3.38.67-3.38 1.73 0 .74.7 1.28 2.52 1.93a11.76 11.76 0 013.6 1.89 3.86 3.86 0 011.15 2.8c0 2.9-2.63 4.86-6.55 4.86zm12.4 0a16.21 16.21 0 01-4.19-.54l.47-2.34a16.83 16.83 0 003.4.33c2.25 0 3.67-.78 3.67-2.07 0-.9-.63-1.39-2.72-2.18a9.3 9.3 0 01-3.29-1.73 3.76 3.76 0 01-1.17-2.73c0-2.63 2.43-4.36 6.17-4.36a12 12 0 013.51.45l-.43 2.23a12.32 12.32 0 00-2.77-.27c-2 0-3.37.67-3.37 1.73 0 .74.69 1.28 2.52 1.93a11.76 11.76 0 013.6 1.89 3.9 3.9 0 011.15 2.8c0 2.9-2.64 4.86-6.55 4.86zm9.04-.3v-15h3.06v15zm13.03.32c-4.25 0-7.34-3.22-7.34-7.68a7.61 7.61 0 017.72-8 7.23 7.23 0 017.36 7.61 7.71 7.71 0 01-7.74 8.07zm4.55-8c0-3-1.94-5.13-4.41-5.13s-4.3 2.14-4.3 5.11 1.82 5.36 4.36 5.36 4.35-2.1 4.35-5.07zm15.57 7.68l-6.94-9.92v9.92h-2.79v-15h2.89l7 10.06V83.61h2.79v15zm-123 39.03a12.27 12.27 0 01-2.91.36c-5.58 0-9.43-3.57-9.43-8.72s4.26-9.11 10.17-9.11a14.27 14.27 0 012.5.23 12.58 12.58 0 012.75.77l-1 3.08-.92-.22a13.55 13.55 0 00-2.81-.33c-3.64 0-6.12 2.17-6.12 5.36a5.06 5.06 0 005.2 5.22 8.49 8.49 0 001.92-.23 9.33 9.33 0 002.7-1l1.58 3.09a12.79 12.79 0 01-3.63 1.5zm5.61-.03v-17h4.49v13.56h7.37v3.44zm13.92 0v-17h11.81v3.26h-7.34v3.44h6.93v3.16h-6.93v3.7h7.8v3.44zm27.82 0l-1.58-4.15h-6.68l-1.53 4.15h-4.4l7.06-17h4.69l7.19 17zm-5-13l-2.12 5.76h4.34zm21.02 13l-2.91-5.94a1.82 1.82 0 00-1.76-1h-.38v7h-4.44v-17h6.35a19.52 19.52 0 012.42.13c2.5.3 4.18 2 4.18 4.23a4.47 4.47 0 01-4 4.26 2.84 2.84 0 012.21 1.58l3.5 6.8zm-1.84-13.58a3.38 3.38 0 00-2-.38h-1.25v4.06h1.07c1.83 0 2.9-.79 2.9-2.15a1.76 1.76 0 00-.72-1.53zm-73.11 40.58v-17H24.2v3.26h-7.34v3.44h6.93v3.16h-6.93v3.7h7.8v3.44zm26.24 0l-6.88-9.46v9.46h-4.11v-17h4.11l7 9.71v-9.71h4.11v17zm21.57-.4a15.82 15.82 0 01-4.89.76c-5.81 0-9.77-3.49-9.77-8.64 0-5.36 4.29-9.08 10.51-9.08a14.76 14.76 0 012.62.23 15 15 0 012.81.76l-1 3.12a7.74 7.74 0 00-1-.31 13.53 13.53 0 00-3-.38c-3.74 0-6.24 2.24-6.24 5.61 0 3.13 2.24 5.27 5.53 5.27a4.46 4.46 0 001.51-.2v-4.95h4.28v7.32c-.64.23-1.08.38-1.36.49zm4.19.4v-17h4.49v13.56h7.36v3.44zm13.92 0v-17h4.51v17zm12.14.31a20.26 20.26 0 01-5-.66l.66-3.39.51.07a21.89 21.89 0 003.27.33c2.42 0 3.79-.61 3.79-1.68 0-.76-.56-1.17-2.39-1.76a10.75 10.75 0 01-3.57-1.58 4.69 4.69 0 01-1.84-3.7c0-3.26 2.93-5.33 7.58-5.33a16.55 16.55 0 014.15.54l-.56 3.19a15.83 15.83 0 00-3-.26c-2.34 0-3.69.51-3.69 1.43a.94.94 0 00.2.56c.36.41.79.64 2.35 1.15a12.5 12.5 0 013.74 1.71 4.54 4.54 0 011.71 3.59c-.01 3.55-3.09 5.79-7.91 5.79zm21.6-.31v-7.37h-6.71v7.37h-4.44v-17h4.44v6.42h6.71v-6.45h4.41v17zM16.6 191.93a20.33 20.33 0 01-5-.66l.66-3.39.51.07a22 22 0 003.27.33c2.42 0 3.8-.61 3.8-1.68 0-.76-.56-1.17-2.4-1.76a10.75 10.75 0 01-3.57-1.58 4.68 4.68 0 01-1.83-3.7c0-3.26 2.93-5.33 7.57-5.33a16.55 16.55 0 014.15.54l-.63 3.19a15.8 15.8 0 00-3-.26c-2.35 0-3.7.51-3.7 1.43a1 1 0 00.2.56c.36.41.79.64 2.35 1.15a12.59 12.59 0 013.75 1.71 4.57 4.57 0 011.71 3.59c.07 3.55-3.02 5.79-7.84 5.79zm18.53-14.07v13.76H30.7v-13.76h-5.17v-3.24h14.68v3.24zm17.47 13.76l-1.58-4.15h-6.68l-1.53 4.15H38.4l7.06-17h4.67l7.19 17zm-5-13l-2.11 5.76h4.33zm22.53 13l-6.88-9.46v9.46h-4.12v-17h4.11l7 9.71v-9.71h4.11v17zm20.8-1.83a8.92 8.92 0 01-3.65 1.5 26.59 26.59 0 01-5.38.33h-4.1v-17h5.38a37.54 37.54 0 014.61.25c4 .54 6.61 3.72 6.61 8a8.27 8.27 0 01-3.47 6.92zm-2.8-10.69a4.44 4.44 0 00-1.69-.91 9.12 9.12 0 00-3.13-.28h-1.08v10.35h.67a8.25 8.25 0 003.26-.41 5.06 5.06 0 003.57-5 4.64 4.64 0 00-1.6-3.75zm20.77 12.52l-1.58-4.15h-6.68l-1.51 4.15h-4.41l7.07-17h4.69l7.19 17zm-5-13l-2.11 5.76h4.34zm21.02 13l-2.91-5.94a1.82 1.82 0 00-1.76-1h-.38v7h-4.44v-17h6.35a19.7 19.7 0 012.43.13c2.49.3 4.18 2 4.18 4.23a4.48 4.48 0 01-4 4.26 3.47 3.47 0 011.22.45 3.6 3.6 0 011 1.13l3.49 6.8zm-1.79-13.58a3.38 3.38 0 00-2-.38h-1.25v4.06h1.07c1.84 0 2.91-.79 2.91-2.15a1.77 1.77 0 00-.73-1.53zm21.86 11.75a8.92 8.92 0 01-3.65 1.5 26.65 26.65 0 01-5.38.33h-4.1v-17h5.38a37.66 37.66 0 014.61.25c3.95.54 6.61 3.72 6.61 8a8.27 8.27 0 01-3.47 6.92zm-2.81-10.69a4.33 4.33 0 00-1.68-.91 9.19 9.19 0 00-3.14-.28h-1.07v10.35h.67a8.25 8.25 0 003.26-.41 5.06 5.06 0 003.57-5 4.65 4.65 0 00-1.61-3.75z"/>
</svg>
