<svg xmlns="http://www.w3.org/2000/svg" viewBox="0 0 17 11.957">
  <path d="M6.745 8.184V3.407l4.593 2.396-4.593 2.38zM16.83 2.58s-.166-1.17-.676-1.687c-.646-.677-1.37-.68-1.703-.72C12.073 0 8.505 0 8.505 0h-.008S4.928 0 2.55.172c-.334.04-1.06.043-1.705.72C.336 1.408.17 2.58.17 2.58S0 3.956 0 5.33v1.29c0 1.377.17 2.752.17 2.752s.166 1.172.676 1.688c.646.677 1.496.656 1.875.727 1.36.13 5.78.17 5.78.17s3.573-.004 5.952-.176c.332-.04 1.057-.042 1.703-.72.51-.515.676-1.687.676-1.687S17 7.997 17 6.62V5.33c0-1.374-.17-2.75-.17-2.75z"/>
</svg>
