<svg xmlns="http://www.w3.org/2000/svg" viewBox="21.674 9.982 24.653 20.035">
  <path
      d="M46.326 12.592c-.904.402-1.883.674-2.904.796 1.045-.625 1.846-1.617 2.225-2.796-.98.579-2.062 1-3.215 1.226-.922-.982-2.238-1.597-3.691-1.597-2.793 0-5.058 2.264-5.058 5.058 0 .396.044.783.131 1.153-4.204-.211-7.93-2.224-10.425-5.283-.435.746-.685 1.614-.685 2.542 0 1.754.893 3.303 2.25 4.21-.828-.025-1.608-.253-2.291-.632v.064c0 2.451 1.743 4.493 4.056 4.958-.423.115-.87.176-1.332.176-.325 0-.642-.033-.95-.094.643 2.012 2.511 3.475 4.724 3.514-1.73 1.357-3.912 2.166-6.282 2.166-.407 0-.81-.021-1.206-.07 2.239 1.438 4.896 2.273 7.752 2.273 9.303 0 14.391-7.707 14.391-14.391 0-.219-.006-.437-.016-.654.991-.715 1.848-1.606 2.526-2.619z" />
</svg>
