<svg xmlns="http://www.w3.org/2000/svg" fill="#fff" viewBox="0 0 863.03 320.83">
  <path d="M400.55 112.89a25.11 25.11 0 01-8 4.91 35.08 35.08 0 01-13.38 2.2q-11.44 0-18.62-7.66t-7.18-19.94v-1.94q0-12.67 7.08-20.64t18.49-7.95A33.46 33.46 0 01391.06 64a26.1 26.1 0 019.14 5.73v11.34h-8.38l-1.59-7.56a11.57 11.57 0 00-4.09-2.12 19.6 19.6 0 00-5.84-.79q-7.41 0-11.53 5.47t-4.11 14.32v2q0 8.63 4 13.76t11.64 5.14a21.41 21.41 0 005.53-.58 12.19 12.19 0 003.31-1.36v-9.57l-8.07-.62v-8h19.44zM465.92 84l-4.23.55-8.77 34.61h-9.46l-7.8-25h-.23l-7.8 25h-9.43l-8.81-34.61-4.23-.55v-6.81h19V84l-4.46.86 4 19.2h.23l7.84-26.89h7.6l7.92 27h.23l3.92-19.24-4.5-.9v-6.84h19zm30.22 35.18a20 20 0 01-.81-2.16 15.78 15.78 0 01-.55-2.23 15.52 15.52 0 01-4.9 3.77 14.81 14.81 0 01-6.62 1.43q-6.17 0-9.8-3.35a11.85 11.85 0 01-3.63-9.14 10.39 10.39 0 014.74-9.12q4.73-3.22 13.89-3.22h5.78v-4.11a6.17 6.17 0 00-1.75-4.7 7.2 7.2 0 00-5.16-1.67 12.12 12.12 0 00-3.45.45 8.86 8.86 0 00-2.44 1.07l-.74 4.5h-8.54v-9.31a31.76 31.76 0 017.12-3.54 26 26 0 018.75-1.43q7.8 0 12.67 3.82t4.87 10.88v19.17a13.8 13.8 0 00.13 1.63l3.46.47v6.79zm-9.82-7.57a9.92 9.92 0 004.66-1.1 9.06 9.06 0 003.26-2.78v-6.4h-5.78A7.86 7.86 0 00483 103a5.27 5.27 0 00-1.86 4 4.18 4.18 0 001.37 3.34 5.62 5.62 0 003.81 1.27zm60.6-19.98h-7.6l-1.2-5.24a10 10 0 00-2.93-1.55 11.82 11.82 0 00-3.9-.62 7.56 7.56 0 00-4.74 1.34 4.07 4.07 0 00-1.74 3.35 3.83 3.83 0 001.67 3.17q1.66 1.26 6.67 2.23 7.8 1.55 11.56 4.56a10 10 0 013.77 8.28 11 11 0 01-4.87 9.25q-4.87 3.6-12.83 3.59a26.93 26.93 0 01-8.9-1.41 22.73 22.73 0 01-7.2-4.06l-.12-9.43h7.92l1.55 5.47a6.56 6.56 0 002.76 1.27 16.05 16.05 0 003.64.4 9.23 9.23 0 005.26-1.24 3.9 3.9 0 001.81-3.37 4 4 0 00-1.83-3.23Q533.86 103 529 102q-7.41-1.51-11.2-4.48a9.74 9.74 0 01-3.8-8.1 11.74 11.74 0 014.35-9.1q4.33-3.82 12.37-3.82a31.84 31.84 0 019.28 1.32 19.63 19.63 0 016.85 3.37zm32.98 27.55a20 20 0 01-.82-2.16 17.24 17.24 0 01-.54-2.23 15.56 15.56 0 01-4.91 3.77A14.78 14.78 0 01567 120q-6.16 0-9.79-3.35a11.85 11.85 0 01-3.63-9.14 10.41 10.41 0 014.73-9.12q4.74-3.22 13.89-3.22h5.8v-4.12a6.2 6.2 0 00-1.74-4.7 7.23 7.23 0 00-5.16-1.67 12.15 12.15 0 00-3.46.45 9 9 0 00-2.44 1.07l-.74 4.5h-8.53v-9.31a31.54 31.54 0 017.12-3.54 26 26 0 018.75-1.43c5.19 0 9.42 1.27 12.66 3.82s4.87 6.18 4.87 10.88v19.17a13.75 13.75 0 00.14 1.63l3.45.47v6.79zm-9.82-7.57a9.92 9.92 0 004.66-1.1 9 9 0 003.25-2.78v-6.4h-5.78a7.88 7.88 0 00-5.47 1.69 5.27 5.27 0 00-1.86 4 4.19 4.19 0 001.38 3.34 5.61 5.61 0 003.82 1.25zm25.72.78l5.43-1.17v-26l-6-1.17v-6.86h16.57l.51 6a15.22 15.22 0 015.16-5 13.37 13.37 0 016.86-1.78q6.38 0 9.94 4T637.82 93v18.27l5.43 1.17v6.79H621.6v-6.79l4.85-1.17V93q0-4.23-1.71-6a6.9 6.9 0 00-5.16-1.76 8.67 8.67 0 00-4 .91 8.33 8.33 0 00-3 2.58v22.5l4.58 1.17v6.79H595.8zm77.4 6.79a20 20 0 01-.82-2.16 17.24 17.24 0 01-.54-2.23 15.56 15.56 0 01-4.91 3.77 14.78 14.78 0 01-6.62 1.43q-6.16 0-9.79-3.35a11.85 11.85 0 01-3.63-9.14 10.41 10.41 0 014.73-9.12q4.74-3.22 13.89-3.22h5.78v-4.11a6.2 6.2 0 00-1.74-4.7 7.23 7.23 0 00-5.16-1.67 12.15 12.15 0 00-3.46.45 9 9 0 00-2.44 1.07l-.74 4.5h-8.53v-9.31a31.54 31.54 0 017.12-3.54 26 26 0 018.75-1.43c5.19 0 9.42 1.27 12.66 3.82s4.87 6.18 4.87 10.88v19.17a13.75 13.75 0 00.14 1.63l3.45.47v6.79zm-9.82-7.57a9.92 9.92 0 004.66-1.1 9 9 0 003.25-2.78v-6.4h-5.78A7.88 7.88 0 00660 103a5.27 5.27 0 00-1.86 4 4.19 4.19 0 001.38 3.34 5.62 5.62 0 003.86 1.27zm46.44 8.39q-9.09 0-14.52-5.82t-5.43-14.78v-1.56q0-9.36 5.14-15.41t13.8-6q8.49 0 13.19 5.12t4.69 13.85v6.17h-25.06l-.08.23a10.92 10.92 0 002.78 6.83 8.62 8.62 0 006.67 2.67 21.63 21.63 0 006.25-.76 28.39 28.39 0 005.43-2.38l3.06 7a22.19 22.19 0 01-6.74 3.44 28.68 28.68 0 01-9.18 1.4zm-1-34.84a5.91 5.91 0 00-5 2.4 12.5 12.5 0 00-2.25 6.33l.12.19h13.91v-1a9.13 9.13 0 00-1.69-5.76 6.11 6.11 0 00-5.1-2.17zm39.56-18.25v10.28h7.37v8h-7.37v21.38a5 5 0 001 3.49 3.61 3.61 0 002.72 1 17.37 17.37 0 002-.1 17.81 17.81 0 002-.33l1 8.19a26.55 26.55 0 01-3.77.87 25.37 25.37 0 01-4 .29q-5.87 0-9-3.22c-2.11-2.14-3.17-5.55-3.17-10.2V85.15H731v-8h6.16V66.91zm11.9 45.48l5.47-1.17V66.64l-6-1.16v-6.83H777v23.9a14.3 14.3 0 014.89-4.55 12.85 12.85 0 016.36-1.61q6.6 0 10.35 4.36t3.74 13.49v17l5.43 1.17v6.79h-21.65v-6.79l4.89-1.17v-17q0-4.89-1.73-6.93a6.38 6.38 0 00-5.14-2 9.37 9.37 0 00-4.13.85 8.18 8.18 0 00-3 2.41v22.73l4.89 1.17v6.79h-21.62zm-407.14 69.53l4-.58 17.19-49.13H386l17 49.13 4 .58v6.79h-19.18v-6.79l3.92-.7-2.48-7.76H371l-2.49 7.76 3.92.7v6.79h-19.29zm20.48-16.8h13l-6.36-19.91H380zm37.9 16.8l5.44-1.17v-26l-6-1.17v-6.83h16.57l.5 6.13a13.26 13.26 0 013.81-5.08 8.52 8.52 0 015.39-1.82 13.94 13.94 0 011.88.13 12.91 12.91 0 011.65.33l-1.2 10.33-4.66-.12a7.91 7.91 0 00-4.11 1 6.19 6.19 0 00-2.48 2.75v20.41l5.43 1.17v6.79h-22.2zm31.85 0l5.47-1.17v-26l-6-1.17v-6.83h17.38v34l5.43 1.17v6.79h-22.28zm16.8-45.25h-11.33v-8.49h11.33zm35.5 52.04a20 20 0 01-.82-2.16 17.24 17.24 0 01-.54-2.23 15.56 15.56 0 01-4.91 3.77 14.78 14.78 0 01-6.62 1.43q-6.16 0-9.79-3.35a11.85 11.85 0 01-3.63-9.14 10.41 10.41 0 014.73-9.12q4.74-3.22 13.89-3.22h5.79v-4.11a6.21 6.21 0 00-1.75-4.7 7.21 7.21 0 00-5.16-1.67 12.15 12.15 0 00-3.46.45 9 9 0 00-2.44 1.07l-.74 4.5h-8.53v-9.31a31.54 31.54 0 017.12-3.54 26 26 0 018.79-1.38c5.19 0 9.42 1.27 12.66 3.82s4.87 6.18 4.87 10.88v19.12a13.93 13.93 0 00.14 1.63l3.45.47v6.79zm-9.82-7.57a9.92 9.92 0 004.66-1.1 9.15 9.15 0 003.26-2.78v-6.4H488a7.88 7.88 0 00-5.47 1.69 5.27 5.27 0 00-1.86 4 4.2 4.2 0 001.38 3.34 5.62 5.62 0 003.8 1.25zm25.72.78l5.43-1.17v-26l-6-1.17v-6.83h16.57l.51 6a15.22 15.22 0 015.16-5 13.38 13.38 0 016.87-1.78q6.36 0 9.93 4t3.57 12.54v18.27l5.43 1.17v6.79h-21.67v-6.79l4.85-1.17v-18.26q0-4.23-1.71-6a6.9 6.9 0 00-5.16-1.76 8.69 8.69 0 00-4 .91 8.33 8.33 0 00-3 2.58v22.5l4.58 1.17v6.79h-21.36zm96.48 6.79a22.36 22.36 0 01-.82-2.16 17.24 17.24 0 01-.54-2.23 15.56 15.56 0 01-4.91 3.77 14.77 14.77 0 01-6.61 1.43q-6.18 0-9.8-3.35a11.85 11.85 0 01-3.63-9.14 10.41 10.41 0 014.73-9.12q4.74-3.22 13.89-3.22h5.79v-4.11a6.21 6.21 0 00-1.75-4.7 7.2 7.2 0 00-5.16-1.67 12.07 12.07 0 00-3.45.45 8.94 8.94 0 00-2.45 1.07l-.74 4.5h-8.53v-9.31a31.76 31.76 0 017.12-3.54A26 26 0 01600 146q7.8 0 12.67 3.82t4.87 10.88v19.12a13.93 13.93 0 00.14 1.63l3.45.47v6.79zm-9.82-7.57a9.92 9.92 0 004.66-1.1 9.15 9.15 0 003.26-2.78v-6.4h-5.79a7.89 7.89 0 00-5.47 1.69 5.27 5.27 0 00-1.86 4 4.2 4.2 0 001.38 3.34 5.62 5.62 0 003.82 1.25zm-217.62 20.6q9.69 0 15.31 5a18 18 0 010 26.09q-5.61 4.94-15.31 4.93h-9.55v12.53l6.06 1.17v6.79h-23.4v-6.79l6-1.17v-40.55l-6-1.17v-6.83h26.89zM371.06 229h9.55q4.72 0 7.16-2.58a9.24 9.24 0 002.42-6.58 9.63 9.63 0 00-2.42-6.73q-2.43-2.65-7.16-2.66h-9.55zm33.32 22.45l5.48-1.17V205.7l-6.06-1.16v-6.83h17.35v23.9a14.2 14.2 0 014.85-4.52 12.79 12.79 0 016.36-1.61q6.6 0 10.34 4.36t3.74 13.49v16.95l5.44 1.17v6.79h-21.65v-6.79l4.88-1.17v-17q0-4.89-1.72-6.93a6.39 6.39 0 00-5.14-2 9.42 9.42 0 00-4.14.85 8.23 8.23 0 00-3 2.41v22.73l4.89 1.17v6.79h-21.62zm70.46 7.6q-9.07 0-14.51-5.82t-5.44-14.78v-1.55q0-9.36 5.15-15.41t13.79-6q8.51 0 13.19 5.12t4.7 13.85v6.17h-25.07l-.08.24a11 11 0 002.78 6.82 8.62 8.62 0 006.69 2.68 21.63 21.63 0 006.25-.76 29 29 0 005.43-2.38l3.07 7a22.6 22.6 0 01-6.74 3.46 28.63 28.63 0 01-9.21 1.36zm-1-34.84a5.91 5.91 0 00-5 2.4 12.68 12.68 0 00-2.25 6.33l.12.19h13.89v-1a9.08 9.08 0 00-1.69-5.77 6.08 6.08 0 00-5.08-2.15zm22.21 27.24l5.44-1.17v-26l-6-1.17v-6.83H512l.5 6a15.34 15.34 0 015.17-5 13.37 13.37 0 016.86-1.78q6.38 0 9.94 4t3.61 12.5v18.27l5.43 1.17v6.79h-21.65v-6.79l4.85-1.17v-18.22q0-4.23-1.71-6a6.9 6.9 0 00-5.16-1.76 8.74 8.74 0 00-4 .91 8.3 8.3 0 00-3 2.58v22.5l4.58 1.17v6.79h-21.37zM581 230.69h-7.6l-1.21-5.24a9.74 9.74 0 00-2.93-1.55 11.73 11.73 0 00-3.9-.62 7.53 7.53 0 00-4.73 1.34 4.08 4.08 0 00-1.75 3.35 3.82 3.82 0 001.67 3.16c1.12.85 3.34 1.59 6.68 2.24q7.8 1.55 11.56 4.56a10 10 0 013.76 8.28 11 11 0 01-4.87 9.25q-4.86 3.6-12.82 3.59a26.93 26.93 0 01-8.9-1.41 22.73 22.73 0 01-7.2-4.06l-.12-9.43h7.92l1.55 5.47a6.57 6.57 0 002.75 1.27 16.14 16.14 0 003.65.4 9.25 9.25 0 005.26-1.24 3.89 3.89 0 001.8-3.37 3.94 3.94 0 00-1.82-3.22c-1.22-.91-3.45-1.71-6.71-2.41q-7.41-1.52-11.2-4.48a9.74 9.74 0 01-3.78-8.09 11.76 11.76 0 014.34-9.1q4.35-3.82 12.38-3.82a31.84 31.84 0 019.26 1.32 19.46 19.46 0 016.85 3.37zm5.87 20.76l5.47-1.17v-26l-6.05-1.17v-6.83h17.38v34l5.43 1.17v6.79h-22.23zm16.8-45.24h-11.33v-8.5h11.33zm52.22 16.87l-3.92.59-15.44 40.85a22.58 22.58 0 01-4.87 7.61q-3 3.06-9.18 3.06a14.53 14.53 0 01-2.7-.23c-.84-.15-1.83-.37-3-.66l1.32-8.26 1.12.15a8.12 8.12 0 001 .08 6.24 6.24 0 004.35-1.38 9.14 9.14 0 002.32-3.43l1.28-3.18-13.3-34.57-3.92-.63v-6.83h20.56v6.83l-4.69.78 5.74 16.76.58 3h.23l6.64-19.83-4.74-.78v-6.83h20.57zm2.55 28.37l5.43-1.17v-26l-6-1.17v-6.83h16.57l.5 6a15.4 15.4 0 015.16-5 13.43 13.43 0 016.87-1.78q6.36 0 9.93 4t3.56 12.5v18.27l5.44 1.17v6.79h-21.66v-6.79l4.85-1.17v-18.22c0-2.82-.56-4.82-1.7-6a6.9 6.9 0 00-5.16-1.76 8.74 8.74 0 00-4 .91 8.41 8.41 0 00-3 2.58v22.5l4.58 1.17v6.79h-21.37zm77.4 6.79a20 20 0 01-.81-2.16 15.78 15.78 0 01-.55-2.23 15.52 15.52 0 01-4.9 3.77 14.81 14.81 0 01-6.62 1.43q-6.16 0-9.8-3.35a11.85 11.85 0 01-3.63-9.14 10.39 10.39 0 014.74-9.12q4.72-3.23 13.89-3.22h5.78v-4.11a6.17 6.17 0 00-1.75-4.7 7.2 7.2 0 00-5.16-1.67 12.12 12.12 0 00-3.45.45 8.86 8.86 0 00-2.44 1.07l-.74 4.5h-8.54v-9.31a31.76 31.76 0 017.12-3.54 26 26 0 018.75-1.43q7.8 0 12.67 3.82t4.87 10.88v19.17a14 14 0 00.13 1.63l3.46.47v6.79zm-9.84-7.57a9.92 9.92 0 004.66-1.1 9.06 9.06 0 003.26-2.78v-6.4h-5.78a7.86 7.86 0 00-5.47 1.69 5.27 5.27 0 00-1.86 4 4.19 4.19 0 001.37 3.34 5.64 5.64 0 003.82 1.25zm54.49 2.25a13.92 13.92 0 01-5 4.54 14.13 14.13 0 01-6.77 1.59q-6.65 0-10.4-4.25t-3.77-13.21v-17.34l-4.55-1.17v-6.83h15.9v25.42c0 3.05.51 5.25 1.54 6.58a5.39 5.39 0 004.56 2 11.31 11.31 0 004.63-.88 7.94 7.94 0 003.2-2.5v-22.62l-5-1.17v-6.83h16.29v34l5.09 1.17v6.79h-15zM209.93 71l-21.47 10.74-8.19 4.12-95.8 48-25.12 12.54a3.14 3.14 0 01-4.55-2.81V119l95.81-48 8.39-4.21 19.84-9.94a3.18 3.18 0 012.82 0zM173.57 118.99l-26.39 13.2v47.67l26.39 13.2v-74.07z"/>
  <path d="M173.57 109.24v24.6L59.36 191a3.16 3.16 0 01-4.56-2.82v-24.6L169 106.42a3.15 3.15 0 014.57 2.82z"/>
  <path d="M173.57 252.61v-29.69L54.8 163.53v27.75a3.15 3.15 0 001.74 2.81zM143.88 163.53L129 156.11l-44.53-22.28L54.8 119v27.75a3.13 3.13 0 001.74 2.81l13.11 6.56L99.34 171l44.54 22.26L169 205.79a3.14 3.14 0 004.55-2.81v-24.6zM305.82 119v24.6a3.15 3.15 0 01-4.55 2.82l-121-60.55 8.19-4.12L209.93 71z"/>
  <path d="M305.83 119v27.75a3.13 3.13 0 01-1.74 2.81l-87.34 43.67-29.69 14.85v-27.76a3.13 3.13 0 011.74-2.81z"/>
  <path d="M187.06 208.07v44.54l26.57-13.29v-44.54l-26.57 13.29z"/>
</svg>
