<svg 
  xmlns="http://www.w3.org/2000/svg" 
  fill="#fff" 
  viewBox="56.51 56.84 634.92 202.23"
  role="img"
  aria-labelledby="mapsLogoEnTitle">
  <title id="masLogoEnTitle">Money and Pensions Service Logo</title>
  <path d="M410 77.39h-.24l-15.13 41.83H387l-15.08-41.71h-.23l1.09 24.8v8.88l6.05 1.17v6.79h-23.4v-6.79l6-1.17V70.68l-6-1.17v-6.83h20.8l14.39 41.64h.24l14.51-41.64h20.87v6.83l-6.05 1.17v40.54l6.05 1.17v6.79h-23.39v-6.79l6-1.17v-8.88zm20.15 20.41q0-9.39 5.26-15.39t14.53-6q9.31 0 14.57 6t5.26 15.41v.81q0 9.48-5.26 15.43T450 120q-9.34 0-14.61-5.95t-5.26-15.43zm11.33.81a18.34 18.34 0 002 9.22 7 7 0 006.52 3.47 6.89 6.89 0 006.42-3.49 18.12 18.12 0 002-9.2v-.81a18 18 0 00-2.06-9.12 7 7 0 00-6.48-3.53 6.88 6.88 0 00-6.44 3.53 18.28 18.28 0 00-2 9.12zm32.2 13.78l5.43-1.17v-26l-6-1.17v-6.86h16.57l.5 6a15.4 15.4 0 015.16-5 13.38 13.38 0 016.87-1.78q6.36 0 9.93 4T515.7 93v18.27l5.43 1.17v6.79h-21.65v-6.79l4.85-1.17V93q0-4.23-1.7-6a6.9 6.9 0 00-5.16-1.76 8.74 8.74 0 00-4 .91 8.33 8.33 0 00-3 2.58v22.5l4.58 1.17v6.79h-21.37zm70.38 7.61q-9.09 0-14.51-5.82t-5.44-14.78v-1.56q0-9.36 5.14-15.41t13.8-6q8.49 0 13.19 5.12t4.7 13.85v6.17h-25.07l-.08.24a10.92 10.92 0 002.78 6.82 8.62 8.62 0 006.69 2.68 22 22 0 006.25-.75 29.14 29.14 0 005.43-2.39l3.06 7a22.19 22.19 0 01-6.73 3.46 28.63 28.63 0 01-9.21 1.37zm-1-34.84a5.91 5.91 0 00-5 2.4 12.68 12.68 0 00-2.25 6.33l.12.19h13.89v-1a9.07 9.07 0 00-1.69-5.76 6.09 6.09 0 00-5.08-2.17zM608.85 84l-3.92.59-15.45 40.85a22.41 22.41 0 01-4.86 7.61c-2 2-5.09 3.06-9.18 3.06a14.45 14.45 0 01-2.7-.23q-1.26-.22-3-.66l1.32-8.26 1.13.15a8.12 8.12 0 001 .08 6.23 6.23 0 004.34-1.38 9 9 0 002.33-3.43l1.28-3.18-13.27-34.56L564 84v-6.81h20.57V84l-4.7.78 5.75 16.76.58 3h.23L593 84.8l-4.72-.8v-6.81h20.57zm19.96 20a12.64 12.64 0 012.53-7.9 34.18 34.18 0 017.66-6.95 35.4 35.4 0 01-3.94-6.52 14.74 14.74 0 01-1.3-6q0-6.7 4.19-10.73t11.21-4a13.62 13.62 0 0110 3.82 12.52 12.52 0 013.87 9.25 13.16 13.16 0 01-1.91 7A18.57 18.57 0 01656 87.4l-3.63 2.6 10.71 12.49a21 21 0 002.17-5 20.67 20.67 0 00.77-5.74h8.46a34.87 34.87 0 01-1.32 9.85 23.84 23.84 0 01-4 8l8.04 9.4-.08.2h-12.57l-3-3.45a27 27 0 01-6.79 3.2 25.54 25.54 0 01-7.49 1.06q-8.46 0-13.46-4.44a14.74 14.74 0 01-5-11.57zm19.05 7.33a16.56 16.56 0 004.12-.52 17.2 17.2 0 004-1.57L644.29 95.7l-.73.51a10.72 10.72 0 00-2.7 3.63 9.31 9.31 0 00-.72 3.55 7.86 7.86 0 002.14 5.68 7.35 7.35 0 005.58 2.23zm-4-34.8a8 8 0 00.83 3.43 21.37 21.37 0 002.5 3.9l3.34-2.17a8 8 0 002.93-2.87 7 7 0 00.76-3.22 4.94 4.94 0 00-1.42-3.46 4.82 4.82 0 00-3.7-1.51 4.66 4.66 0 00-3.88 1.69 6.47 6.47 0 00-1.31 4.18zm-261.54 55.69q9.71 0 15.31 5a18 18 0 010 26.1q-5.61 4.92-15.31 4.92h-9.54v12.54l6.05 1.16v6.79h-23.4v-6.79l6-1.16v-40.57l-6-1.17v-6.82h26.89zm-9.54 27.27h9.54c3.16 0 5.54-.86 7.16-2.58a9.19 9.19 0 002.42-6.57 9.61 9.61 0 00-2.42-6.74c-1.62-1.77-4-2.65-7.16-2.65h-9.54zm52.85 30.04q-9.09 0-14.52-5.83t-5.43-14.78v-1.55q0-9.35 5.14-15.4t13.8-6q8.49 0 13.19 5.12t4.69 13.86v6.16h-25.06l-.08.24a11 11 0 002.77 6.83 8.69 8.69 0 006.7 2.67 21.9 21.9 0 006.24-.75 28.92 28.92 0 005.44-2.39l3.06 7a22.18 22.18 0 01-6.73 3.45 28.67 28.67 0 01-9.21 1.37zm-1-34.85a5.89 5.89 0 00-5 2.41 12.42 12.42 0 00-2.25 6.32l.12.2h13.89v-1a9.1 9.1 0 00-1.69-5.76 6.08 6.08 0 00-5.08-2.17zm22.21 27.24l5.43-1.16v-26l-6-1.16v-6.83h16.57l.5 6a15.37 15.37 0 015.16-5 13.38 13.38 0 016.87-1.79q6.36 0 9.93 4t3.57 12.53v18.28l5.43 1.16v6.79h-21.66v-6.79l4.85-1.16v-18.27q0-4.23-1.7-6a6.87 6.87 0 00-5.16-1.77 8.74 8.74 0 00-4 .91 8.33 8.33 0 00-3 2.58v22.51l4.58 1.16v6.79h-21.37zm84.93-20.76h-7.61l-1.2-5.24a10.1 10.1 0 00-2.93-1.55 11.82 11.82 0 00-3.9-.62 7.59 7.59 0 00-4.73 1.34 4.06 4.06 0 00-1.75 3.36 3.83 3.83 0 001.67 3.16c1.11.84 3.34 1.58 6.67 2.23q7.8 1.54 11.57 4.56a10 10 0 013.76 8.28 11 11 0 01-4.87 9.26q-4.87 3.59-12.82 3.59a26.94 26.94 0 01-8.91-1.42 22.76 22.76 0 01-7.2-4.06l-.11-9.42h7.91l1.56 5.47a6.45 6.45 0 002.75 1.26 16.07 16.07 0 003.65.41 9.27 9.27 0 005.26-1.25 3.88 3.88 0 001.8-3.37 4 4 0 00-1.82-3.22q-1.83-1.37-6.72-2.41-7.41-1.52-11.19-4.52a9.74 9.74 0 01-3.78-8.09 11.72 11.72 0 014.34-9.1q4.35-3.82 12.38-3.82a31.77 31.77 0 019.25 1.32 19.54 19.54 0 016.85 3.37zm5.89 20.76l5.47-1.16v-26l-6.06-1.16v-6.83h17.39v34l5.43 1.16v6.79h-22.23zm16.8-45.24h-11.33v-8.5h11.33zm8.54 30.65q0-9.39 5.26-15.38t14.53-6q9.32 0 14.57 6t5.26 15.4v.82q0 9.47-5.26 15.42t-14.49 6q-9.36 0-14.61-6T563 168.15zm11.33.82a18.2 18.2 0 002 9.21 7.75 7.75 0 0012.94 0 18.11 18.11 0 002-9.19v-.82a18 18 0 00-2.06-9.12 7 7 0 00-6.48-3.53 6.87 6.87 0 00-6.44 3.53 18.22 18.22 0 00-2 9.12zm32.18 13.77l5.43-1.16v-26l-6-1.16v-6.83h16.57l.51 6a15.19 15.19 0 015.16-5A13.38 13.38 0 01635 146q6.36 0 9.93 4t3.57 12.53v18.28l5.43 1.16v6.79h-21.62v-6.79l4.85-1.16v-18.29q0-4.23-1.71-6a6.87 6.87 0 00-5.16-1.77 8.69 8.69 0 00-4 .91 8.33 8.33 0 00-3 2.58v22.51l4.58 1.16v6.79h-21.36zm84.92-20.76h-7.6l-1.2-5.24a10.23 10.23 0 00-2.93-1.55 11.82 11.82 0 00-3.9-.62 7.63 7.63 0 00-4.74 1.34 4.07 4.07 0 00-1.74 3.36 3.82 3.82 0 001.66 3.16c1.12.84 3.34 1.58 6.68 2.23q7.8 1.54 11.56 4.56a10 10 0 013.77 8.28 11 11 0 01-4.87 9.26q-4.87 3.59-12.83 3.59a26.92 26.92 0 01-8.9-1.42 22.54 22.54 0 01-7.2-4.06l-.12-9.42H667l1.55 5.47a6.43 6.43 0 002.76 1.26 16.05 16.05 0 003.64.41 9.22 9.22 0 005.26-1.25 3.88 3.88 0 001.8-3.37 3.93 3.93 0 00-1.82-3.22c-1.22-.91-3.45-1.71-6.71-2.41q-7.41-1.52-11.2-4.48a9.74 9.74 0 01-3.78-8.09 11.74 11.74 0 014.35-9.1q4.33-3.82 12.37-3.82a31.84 31.84 0 019.26 1.32 19.63 19.63 0 016.85 3.37zm-293.08 58.63h-8.5l-1.48-7.79a15.18 15.18 0 00-4.3-1.63 25.4 25.4 0 00-6-.7c-3.1 0-5.5.66-7.2 2a6.14 6.14 0 00-2.54 5.07 5.54 5.54 0 002.66 4.71q2.65 1.84 9.18 3.9 9.35 2.59 14.18 6.87a14.23 14.23 0 014.83 11.21 13.42 13.42 0 01-5.74 11.45q-5.75 4.19-15.13 4.19a32.68 32.68 0 01-12.13-2.14 24.85 24.85 0 01-9-5.89v-11.8h8.77l1.2 8a13.76 13.76 0 004.64 2.31 21.86 21.86 0 006.54.91q4.65 0 7.08-1.9a6.13 6.13 0 002.42-5.08 6.57 6.57 0 00-2.31-5.24c-1.54-1.32-4.23-2.56-8.09-3.72q-10-2.91-15.21-6.91a13.08 13.08 0 01-5.22-10.92 13.46 13.46 0 015.82-11.24q5.82-4.37 14.63-4.48a34 34 0 0111.87 2 27.53 27.53 0 019 5.28zm25.25 39.27q-9.09 0-14.52-5.82t-5.43-14.79v-1.55q0-9.35 5.14-15.4t13.8-6q8.49 0 13.19 5.13t4.7 13.85v6.17h-25.07l-.08.23a11 11 0 002.78 6.83 8.66 8.66 0 006.69 2.68 22 22 0 006.25-.76 28.49 28.49 0 005.43-2.39l3.06 7a22.18 22.18 0 01-6.73 3.45 28.67 28.67 0 01-9.21 1.37zm-1-34.85a5.92 5.92 0 00-5 2.41 12.43 12.43 0 00-2.25 6.33l.12.19h13.89v-1a9 9 0 00-1.69-5.76 6.08 6.08 0 00-5.08-2.17zm23.69 27.24l5.43-1.16v-26l-6-1.16v-6.83h16.57l.51 6.13a13.17 13.17 0 013.8-5.08 8.47 8.47 0 015.39-1.83 14 14 0 011.89.14 11.49 11.49 0 011.64.33l-1.2 10.32-4.65-.12a8 8 0 00-4.12 1 6.34 6.34 0 00-2.48 2.76v20.41l5.43 1.16v6.79h-22.21zm50.8-28.36l-4 .74 5.55 18.78.74 3.95h.23l.81-3.95 5.47-18.75-4-.77v-6.83H521v6.83l-3.65.58-12.37 34.57H494.1l-12.42-34.57-3.64-.58v-6.83h19zM525 251.45l5.48-1.16v-26l-6.06-1.16v-6.83h17.39v34l5.43 1.16v6.79H525zm16.81-45.24h-11.33v-8.5h11.33zm28.07 44.16a6.67 6.67 0 004.85-1.77 6.24 6.24 0 001.82-4.71h10.25l.11.23a13.07 13.07 0 01-4.77 10.65 18 18 0 01-12.26 4.29q-9.39 0-14.47-5.94t-5.09-15.25v-1.16q0-9.27 5.22-15.25t14.88-6a25.8 25.8 0 019.12 1.52 17.94 17.94 0 016.71 4.27l.16 11.21h-9.2l-1.86-6.56a7.19 7.19 0 00-2.09-1.22 7.86 7.86 0 00-2.84-.49q-4.81 0-6.79 3.5a18.1 18.1 0 00-2 9v1.16a19.28 19.28 0 001.83 9.06c1.23 2.31 3.37 3.46 6.42 3.46zm41.86 8.69q-9.09 0-14.51-5.82t-5.44-14.79v-1.55q0-9.35 5.15-15.4t13.79-6q8.49 0 13.19 5.13t4.7 13.85v6.17h-25.07l-.08.23a11 11 0 002.78 6.83 8.66 8.66 0 006.69 2.68 22 22 0 006.25-.76 28.49 28.49 0 005.43-2.39l3.07 7a22.37 22.37 0 01-6.74 3.45 28.63 28.63 0 01-9.21 1.37zm-1-34.85a5.92 5.92 0 00-5 2.41 12.61 12.61 0 00-2.25 6.33l.12.19h13.89v-1a9 9 0 00-1.69-5.76 6.07 6.07 0 00-5.08-2.17zM211.64 71l-21.46 10.74-8.18 4.12-95.8 48-25.13 12.54a3.14 3.14 0 01-4.55-2.81V119l95.8-48 8.42-4.22 19.85-9.94a3.18 3.18 0 012.82 0zM175.29 118.99l-26.4 13.2v47.67l26.4 13.2v-74.07z"/>
  <path d="M175.29 109.24v24.6L61.07 191a3.15 3.15 0 01-4.55-2.82v-24.6l114.21-57.11a3.16 3.16 0 014.56 2.77z"/>
  <path d="M175.29 252.61v-29.69L56.52 163.53v27.75a3.13 3.13 0 001.74 2.81zM145.59 163.53l-14.84-7.42-44.57-22.28L56.51 119v27.75a3.15 3.15 0 001.74 2.81l13.11 6.56L101.05 171l44.54 22.26 25.14 12.57a3.15 3.15 0 004.56-2.81v-24.6zM307.54 119v24.6a3.15 3.15 0 01-4.55 2.82L182 85.86l8.2-4.12L211.64 71z"/>
  <path d="M307.54 119v27.75a3.13 3.13 0 01-1.74 2.81l-87.34 43.67-29.69 14.85v-27.76a3.13 3.13 0 011.74-2.81z"/>
  <path d="M188.77 208.07v44.54l26.58-13.29v-44.54l-26.58 13.29z"/>
</svg>
