<svg xmlns="http://www.w3.org/2000/svg" viewBox="0 0 1234 201.8">
  <defs/>
  <path d="M343.32 0a186.27 186.27 0 00-143.06 66.94 135.13 135.13 0 00-64.38-16.24C61 50.69 0 111.65 0 186.59h13.68A122.18 122.18 0 01191.75 77.9q-3.44 4.77-6.56 9.75a110.53 110.53 0 00-159.84 98.93H39a96.82 96.82 0 01139.33-87.05q-2.73 5.14-5.15 10.47a85.16 85.16 0 00-122.49 76.59h13.67A71.51 71.51 0 01168 122.68c-1.35 3.69-2.58 7.45-3.7 11.24A59.82 59.82 0 0076 186.59h13.71a46.16 46.16 0 0171.1-38.87c-.9 4.24-1.65 8.54-2.26 12.87a34.48 34.48 0 00-57.17 26h13.68a20.84 20.84 0 1141.67 0h13.68c0-95.34 77.57-172.9 172.91-172.9s172.91 77.56 172.91 172.9h13.68C529.91 83.7 446.2 0 343.32 0M195.91 72.33z" class="cls-1"/>
  <path d="M343.32 25.35c-88.91 0-161.24 72.33-161.24 161.24h13.67C195.75 105.22 262 39 343.32 39s147.56 66.2 147.56 147.57h13.68c0-88.91-72.33-161.24-161.24-161.24" class="cls-1"/>
  <path d="M343.32 50.69c-74.94 0-135.9 61-135.9 135.9h13.67a122.23 122.23 0 01244.45 0h13.68c0-74.94-61-135.9-135.9-135.9" class="cls-1"/>
  <path d="M343.32 76a110.67 110.67 0 00-110.55 110.58h13.68a96.88 96.88 0 01193.75 0h13.67A110.67 110.67 0 00343.32 76" class="cls-1"/>
  <path d="M343.32 101.37a85.3 85.3 0 00-85.2 85.22h13.66a71.54 71.54 0 01143.07 0h13.67a85.3 85.3 0 00-85.2-85.22" class="cls-1"/>
  <g>
    <path d="M620 176.47l-6.14-8.36-.55.63a22.84 22.84 0 01-16.08 7c-9.61 0-17.14-8.2-17.14-18.69S587 139.31 597 139.31c4.31 0 10.67 1.65 10.67 5.19v3.76h10.53v-6.77c0-9.42-13.14-12.94-21.43-12.94-16.22 0-28.45 12.26-28.45 28.52 0 17.07 12.13 29.46 28.84 29.46a30.72 30.72 0 0022.58-9.66z"/>
    <path d="M649.51 149.06l-6.71 19.68a27.37 27.37 0 00-.75 2.68 27.84 27.84 0 00-.83-2.71l-7.71-19.66c-1.11-3-2.74-4.15-5.81-4.15h-7.15v9.69h1.83c.86 0 1.12.11 1.47 1l13 29.27-1.2 2.75c-1.21 3-3.29 4.59-5.85 4.59a7.82 7.82 0 01-5.13-2.47L624 189l-4.47 8.21.34.36a15.12 15.12 0 0010.44 4.22c6.76 0 12.16-3.9 14.82-10.69l14.12-35.56c.32-.79.6-1 1.61-1h1.83v-9.64h-7.29c-3.08 0-4.9 1.29-5.89 4.16M709 175v-15.38c0-10.38-4.84-15.64-14.4-15.64a15.8 15.8 0 00-13.21 6.5V150c0-3.23-2.13-5.07-5.85-5.07h-9.7v9.68h3.76c.74 0 1 .27 1 1v30h11.07v-18.74a15.77 15.77 0 01.75-5.05 10.08 10.08 0 019.92-7.54c3.95 0 5.49 2.06 5.49 7.35v18.05c0 4.09 1.83 5.92 5.93 5.92h10V176H710c-.7 0-1-.31-1-1M735.37 175.22c-5.62 0-9.12-4.32-9.12-11.28 0-6.53 3.1-10.28 8.51-10.28 6.22 0 9.12 3.39 9.12 10.67 0 9-4.63 10.89-8.51 10.89m9.34-26.75c-1.58-1.75-5.11-4.49-11.65-4.49-10.83 0-18.11 8.15-18.11 20.27s7.54 20.58 18.34 20.58c4.55 0 7.88-1.26 10.36-4V183c0 7.8-6.54 9-10.44 9a25 25 0 01-10.55-2.54l-.68-.36-3.5 9 .53.28a32 32 0 0014.28 3.47c10.36 0 21.43-5.06 21.43-19.27v-27.12q0-.87 1-.87h3.69v-9.69h-9.78c-3.06 0-4.62 1.7-4.94 3.57M802.58 175v-15.38c0-10.38-4.85-15.64-14.41-15.64a16.08 16.08 0 00-12.83 6.13v-14.79c0-3.93-1.94-5.85-5.92-5.85h-10v9.69h3.76c.75 0 1 .28 1 1v45.44h11.15v-18.73a16.88 16.88 0 01.59-4.89 10.44 10.44 0 0110-7.7c4 0 5.57 2.13 5.57 7.35v18.05c0 4 1.86 5.92 5.85 5.92h10V176h-3.74c-.7 0-1-.31-1-1M830.53 176.84c-6.25 0-11-5-11-11.59s4.72-11.59 11-11.59 11.05 5 11.05 11.59-4.75 11.59-11.05 11.59m0-32.86c-12.66 0-22.2 9.15-22.2 21.27s9.54 21.28 22.2 21.28 22.28-9.15 22.28-21.28S843.23 144 830.53 144M881.46 144.36a13.71 13.71 0 00-11.82 7.49v-1.49c0-3.62-2-5.46-5.93-5.46h-9.62v9.69h3.76c.75 0 1 .28 1 1v30H870v-16.25a22.65 22.65 0 01.82-6.2 10.35 10.35 0 0110.07-7.78 17 17 0 012.29.15l.78.11v-11l-.57-.09a12.2 12.2 0 00-1.88-.17M891.81 129.48h9.84v10.38h-9.84zM902.42 175v-24.17c0-4-1.86-5.93-5.85-5.93h-10v9.69h3.76c.75 0 1 .27 1 1v24.07c0 4 1.86 5.92 5.85 5.92h10V176h-3.76c-.71 0-1-.31-1-1M951.73 143.26c.43 1.76 1 4.09 1.59 5.78l4.41 12.84h-12l4.4-12.84c.57-1.69 1.17-4 1.6-5.78m22.16 31.17l-16.36-45H946l-16.45 45c-.36 1.08-.69 1.24-1.75 1.24h-1.9v9.91h6.77c4.11 0 5.68-1.1 7-4.92l3.24-9.12h17.56l3.23 9.12c1.34 3.77 3 4.92 7.12 4.92h6.69v-9.91h-1.91c-1 0-1.39-.16-1.75-1.26M1004.22 144.36a13.71 13.71 0 00-11.82 7.49v-1.49c0-3.62-2-5.46-5.92-5.46h-9.63v9.69h3.76c.75 0 1 .28 1 1v30h11.07v-16.25a22.65 22.65 0 01.82-6.2 10.35 10.35 0 0110.07-7.78 17.22 17.22 0 012.3.15l.77.11v-11l-.56-.09a12.57 12.57 0 00-1.89-.17M1014.57 129.48h9.84v10.38h-9.84zM1025.18 175v-24.17c0-4-1.86-5.93-5.84-5.93h-10v9.69h3.76c.74 0 1 .27 1 1v24.07c0 4 1.86 5.92 5.84 5.92h10V176h-3.76c-.71 0-1-.31-1-1M1056.05 167.63h1v.25c0 4.56-3.54 9.66-8.28 9.66-3.89 0-5.26-2.38-5.26-4.42 0-4.54 6.8-5.49 12.51-5.49m12 7.34v-14.66c0-10.84-5.94-16.33-17.65-16.33-3.54 0-15.1.63-15.1 8.78v4.84h10.46v-2.76c0-1.43 2.73-2 4.56-2 4.68 0 6.49 1.82 6.58 6.68h-.56c-7.23 0-24 1.36-24 14 0 8.5 7.1 12.95 14.1 12.95a13.71 13.71 0 0011.3-5.43c.22 2.83 2.3 4.5 5.67 4.5h9.47V176h-3.76c-.71 0-1-.31-1-1M1116 175v-15.38c0-10.38-4.85-15.64-14.4-15.64a15.84 15.84 0 00-13.22 6.5V150c0-3.23-2.13-5.07-5.84-5.07h-9.7v9.68h3.76c.74 0 1 .27 1 1v30h11.07v-18.74a15.86 15.86 0 01.75-5.05 10.08 10.08 0 019.92-7.54c3.95 0 5.49 2.06 5.49 7.35v18.05c0 4.09 1.83 5.92 5.92 5.92h10V176h-3.77c-.7 0-1-.31-1-1M1164.27 175v-15.38c0-10.38-4.85-15.64-14.41-15.64a15.83 15.83 0 00-13.21 6.5V150c0-3.23-2.13-5.07-5.84-5.07h-9.71v9.68h3.77c.74 0 1 .27 1 1v30H1137v-18.74a16.15 16.15 0 01.74-5.05 10.1 10.1 0 019.92-7.54c4 0 5.5 2.06 5.5 7.35v18.05c0 4.09 1.82 5.92 5.92 5.92h10V176h-3.76c-.71 0-1-.31-1-1M1191.82 176.84c-6.25 0-11-5-11-11.59s4.72-11.59 11-11.59 11 5 11 11.59-4.75 11.59-11 11.59m0-32.86c-12.65 0-22.2 9.15-22.2 21.27s9.55 21.28 22.2 21.28 22.28-9.15 22.28-21.28-9.58-21.25-22.28-21.25M1230.31 176c-.7 0-1-.31-1-1v-39.6c0-4-1.94-5.92-5.92-5.92h-10v9.68h3.76c.75 0 1 .28 1 1v39.5c0 4.09 1.83 5.92 5.92 5.92h9.93V176zM596 117.11a25.13 25.13 0 0015.55-5.11v4.22h10V92.13c0-4-1.89-5.85-5.92-5.85h-9.55v9.92h4c.75 0 1 .27 1 1v3.8a19.32 19.32 0 01-13.21 5.31c-10.19 0-17.3-7.65-17.3-18.61 0-10.22 7.27-17.92 16.91-17.92a23.05 23.05 0 0113.61 4.7l.54.46 6.5-8.26-.4-.43c-.28-.29-6.92-7.16-20.47-7.16-16.27 0-28.53 12.33-28.53 28.69 0 17 11.48 29.3 27.29 29.3M655.4 93.24c.15-.49.28-1 .4-1.46.11.47.24 1 .39 1.46l6.81 22.94h12l9.55-30.05c.33-.82.56-1 1.53-1h1.76v-9.65h-7.39c-3.63 0-5.37 1.27-6.21 4.52l-5.71 21.83c-.08.31-.15.61-.22.91-.07-.3-.16-.61-.25-.92l-7.47-26.19H651l-7.39 26.18c-.11.37-.2.73-.29 1.08-.08-.35-.16-.7-.26-1.06L637.28 80c-.84-3.25-2.58-4.52-6.21-4.52h-7.39v9.69h1.76c1 0 1.26.15 1.51.91l9.57 30.1h12.1zM712.87 98.2h1v.25c0 4.56-3.53 9.66-8.27 9.66-3.88 0-5.26-2.37-5.26-4.41 0-4.55 6.81-5.5 12.51-5.5m-9.64 18.91a13.72 13.72 0 0011.3-5.43c.22 2.83 2.31 4.5 5.67 4.5h9.47v-9.61h-3.76c-.7 0-1-.31-1-1V90.89c0-10.84-5.94-16.33-17.65-16.33-3.54 0-15.1.63-15.1 8.77v4.84h10.46v-2.76c0-1.43 2.73-1.94 4.57-1.94 4.67 0 6.48 1.81 6.57 6.67h-.56c-7.23 0-24 1.36-24 14 0 8.5 7.09 13 14.1 13M750.17 108.11c-6.31 0-11.17-5.49-11.22-5.55l-.55-.64-5.4 7.51.32.4a22.06 22.06 0 0016.88 7.28c9.3 0 15.8-5.23 15.8-12.72 0-8.24-7.64-11.08-13.78-13.36-3.83-1.42-7.13-2.65-7.13-4.69 0-2.66 4-2.87 5.19-2.87 2 0 4.26.86 4.26 2.1v2.6h10v-4.76c0-7-9.1-8.85-14.48-8.85-9.69 0-15.95 4.77-15.95 12.17 0 8.12 7.72 11.22 13.94 13.71 3.65 1.47 6.81 2.74 6.81 4.49 0 2.87-3.25 3.18-4.65 3.18M793.87 98.2h1v.25c0 4.56-3.54 9.66-8.27 9.66-3.89 0-5.26-2.37-5.26-4.41 0-4.55 6.8-5.5 12.51-5.5m-9.64 18.91a13.74 13.74 0 0011.3-5.43c.21 2.83 2.3 4.5 5.67 4.5h9.47v-9.61h-3.76c-.71 0-1-.31-1-1V90.89c0-10.84-5.94-16.33-17.65-16.33-3.54 0-15.1.63-15.1 8.77v4.84h10.45v-2.76c0-1.43 2.74-1.94 4.57-1.94 4.68 0 6.49 1.81 6.57 6.67h-.55c-7.23 0-24 1.36-24 14 0 8.5 7.09 13 14.1 13M859.69 106.57h-3.76c-.7 0-1-.31-1-1V90.2c0-10.38-4.85-15.65-14.41-15.65a15.84 15.84 0 00-13.21 6.5v-.5c0-3.22-2.13-5.07-5.85-5.07h-9.7v9.69h3.77c.74 0 1 .27 1 1v30h11.07V97.45a16.17 16.17 0 01.74-5.06 10.08 10.08 0 019.93-7.53c4 0 5.49 2.06 5.49 7.34v18.06c0 4.09 1.83 5.92 5.92 5.92h10zM886.1 98.2h1v.25c0 4.56-3.54 9.66-8.28 9.66-3.88 0-5.26-2.37-5.26-4.41 0-4.55 6.81-5.5 12.52-5.5m-9.65 18.91a13.74 13.74 0 0011.31-5.43c.21 2.83 2.3 4.5 5.67 4.5h9.47v-9.61h-3.76c-.71 0-1-.31-1-1V90.89c0-10.84-6-16.33-17.65-16.33-3.55 0-15.11.63-15.11 8.77v4.84h10.46v-2.76c0-1.43 2.73-1.94 4.57-1.94 4.68 0 6.49 1.81 6.57 6.67h-.55c-7.24 0-24.06 1.36-24.06 14 0 8.5 7.1 13 14.1 13M916.36 90.06a8.61 8.61 0 018.78-6.59c3.55 0 6.27 2.73 6.68 6.59zm9.94 27.05a24.34 24.34 0 0016.28-6.11l.38-.38-4.79-8-.61.57s-4.56 4.23-10.56 4.23-10.09-3.59-11-9.22h27v-.61c0-.1.24-2.51.24-3.69 0-11.57-7.28-19.34-18.11-19.34-12.16 0-20.66 8.74-20.66 21.27 0 12.33 9.18 21.28 21.82 21.28M950.36 101.08c0 14 11.92 15.48 17 15.48a18.78 18.78 0 003.13-.24l.55-.1v-10l-.82.18a8.66 8.66 0 01-1.63.14c-2.66 0-7.12-.87-7.12-6.73V84.63h9v-9.15h-9V64.76H950.6v10.72h-5.33v9.15h5.09zM976.37 70.76v45.42h11.16V97.45a17 17 0 01.58-4.9 10.43 10.43 0 0110-7.69c4 0 5.58 2.13 5.58 7.34v18.06c0 4 1.85 5.92 5.84 5.92h10v-9.61h-3.76c-.71 0-1-.31-1-1V90.2c0-10.38-4.85-15.65-14.41-15.65a16.09 16.09 0 00-12.84 6.14V65.9c0-3.94-1.94-5.85-5.93-5.85h-10v9.69h3.76c.75 0 1 .27 1 1"/>
  </g>
</svg>
