<svg xmlns="http://www.w3.org/2000/svg" viewBox="0 0 170 25" fill="#fff">
    <path d="M14.5104 7.29623L9.77011 2.76649L7.23712 5.18696L10.3491 8.16068H6.98382C5.13836 8.16068 3.83567 6.84671 3.83567 4.97949V0.657227H0V5.46359C0 9.05972 2.71392 11.5839 6.65815 11.5839H10.3491L7.23712 14.4885L9.77011 16.909L14.5104 12.3792C15.994 10.9615 15.994 8.67936 14.5104 7.29623Z"/>
    <path d="M34.8467 0.622314V19.502H30.613V11.5836H22.4713V19.502H18.2375V0.622314H22.4713V8.12577H30.613V0.622314H34.8467Z"/>
    <path d="M50.877 14.9031C50.298 17.8423 47.6203 19.744 44.1103 19.744C39.2976 19.744 36.8008 16.1133 36.8008 12.6901C36.8008 9.23229 39.0081 5.70532 43.8208 5.70532C48.8506 5.70532 50.8408 9.23229 50.8408 12.3443C50.8408 12.863 50.8046 13.2779 50.7684 13.5546H40.5641C40.8536 15.4564 42.1201 16.6666 44.1103 16.6666C45.7024 16.6666 46.7518 16.0788 47.0413 14.9031H50.877ZM40.6365 11.1687H46.9327C46.8242 9.64723 45.7024 8.437 43.8208 8.437C42.0477 8.437 40.9983 9.26687 40.6365 11.1687Z"/>
    <path d="M52.6863 0H56.5943V19.5021H52.6863V0Z"/>
    <path d="M59.3807 5.91279H63.325V7.39965C64.1572 6.36231 65.5685 5.70532 67.4139 5.70532C71.3944 5.70532 73.9274 8.47157 73.9274 12.7247C73.9274 16.9778 71.1772 19.744 67.0521 19.744C65.4599 19.744 64.0487 19.2254 63.2888 18.3263V25.0345H59.3807V5.91279ZM70.0555 12.6901C70.0555 10.4079 68.6443 8.88651 66.5817 8.88651C64.4467 8.88651 63.0717 10.4079 63.0717 12.6901C63.0717 14.9723 64.4467 16.4591 66.5817 16.4591C68.6443 16.4937 70.0555 14.9723 70.0555 12.6901Z"/>
    <path d="M73.7823 5.91284H77.7266L80.1148 14.3153L82.6116 5.91284H86.194L88.727 14.3153L91.1153 5.91284H95.0233L90.4277 19.5021H86.9901L84.3847 11.0304L81.7432 19.5021H78.3417L73.7823 5.91284Z"/>
    <path d="M118.037 15.3872H110.909L109.353 19.502H104.938L112.429 0.622314H116.481L123.972 19.502H119.557L118.037 15.3872ZM116.735 11.9639L114.455 5.84361L112.139 11.9639H116.735Z"/>
    <path d="M131.752 9.02488C129.798 9.02488 128.929 10.5463 128.929 12.8976V19.5021H124.985V5.91284H128.929V8.195C129.689 6.50067 130.775 5.91284 132.475 5.91284H134.067V9.02488H131.752Z"/>
    <path d="M140.002 0V3.97649H135.841V0H140.002ZM135.949 5.91286H139.894V19.5021H135.949V5.91286Z"/>
    <path d="M154.331 10.7539V19.5022H150.423V17.6004C149.953 18.8798 148.361 19.7096 146.407 19.7096C143.657 19.7096 141.739 17.9461 141.739 15.6294C141.739 12.9669 143.838 11.3417 146.949 11.3417H149.338C150.061 11.3417 150.423 10.9268 150.423 10.3389C150.423 9.19787 149.482 8.43715 147.89 8.43715C146.153 8.43715 145.285 9.47449 145.249 10.581H141.739C141.92 7.84932 144.236 5.6709 148.107 5.6709C151.69 5.70548 154.331 7.67643 154.331 10.7539ZM150.423 13.9005V13.7276H147.528C146.334 13.7276 145.502 14.4192 145.502 15.4911C145.502 16.3901 146.298 17.0125 147.384 17.0125C149.338 16.978 150.423 15.6294 150.423 13.9005Z"/>
    <path d="M156.43 5.91279H160.374V7.81459C161.17 6.50062 162.763 5.70532 164.68 5.70532C167.901 5.70532 170 7.91832 170 11.0304V19.502H166.056V11.8602C166.056 10.2005 164.97 9.02482 163.305 9.02482C161.569 9.02482 160.374 10.3042 160.374 12.0331V19.4674H156.43V5.91279V5.91279Z"/>
    <path d="M103.057 9.02488C101.102 9.02488 100.234 10.5463 100.234 12.8976V19.5021H96.2898V5.91284H100.234V8.195C100.994 6.50067 102.08 5.91284 103.78 5.91284H105.372V9.02488H103.057Z"/>
</svg>