<svg xmlns="http://www.w3.org/2000/svg" viewBox="0 0 179 25" fill="#fff">
    <path d="M10.1369 18.3437L7.51639 15.7196L10.7377 12.4938H6.90281C2.83782 12.4938 0 9.76719 0 5.83734V0.601807H3.94994L3.96272 5.31251C3.96272 7.36064 5.30493 8.79433 7.23516 8.79433H10.7377L7.51639 5.56852L10.1369 2.94436L15.0711 7.88547C16.5923 9.40877 16.5923 11.8793 15.0711 13.4026L10.1369 18.3437Z"/>
    <path d="M18.7015 0.614258H23.2522L28.7489 13.8119L34.2712 0.614258H38.7963V19.5083H35.0254V7.98753L30.2573 19.5083H27.2661L22.4725 7.98753V19.5083H18.7015V0.614258Z"/>
    <path d="M40.701 12.7111C40.701 8.66608 43.6922 5.69629 47.8595 5.69629C52.0395 5.69629 55.0307 8.66608 55.0307 12.7111C55.0307 16.7562 52.0395 19.726 47.8595 19.726C43.6922 19.7132 40.701 16.7562 40.701 12.7111ZM51.2597 12.7111C51.2597 10.4454 49.8792 8.9093 47.8595 8.9093C45.8398 8.9093 44.472 10.4454 44.472 12.7111C44.472 14.9513 45.8398 16.4874 47.8595 16.4874C49.892 16.4874 51.2597 14.9385 51.2597 12.7111Z"/>
    <path d="M56.5646 5.9011H60.3356V7.79562C61.0898 6.47714 62.5982 5.69629 64.4517 5.69629C67.5196 5.69629 69.5138 7.91083 69.5138 11.0342V19.5084H65.7428V11.8663C65.7428 10.215 64.6946 9.0373 63.1351 9.0373C61.4861 9.0373 60.3356 10.3046 60.3356 12.0583V19.5084H56.5646V5.9011Z"/>
    <path d="M84.6105 14.8871C84.0736 17.8313 81.4914 19.713 78.1423 19.713C73.5404 19.713 71.1628 16.1032 71.1628 12.6726C71.1628 9.21637 73.2592 5.68335 77.8739 5.68335C82.6675 5.68335 84.5849 9.21637 84.5849 12.3142C84.5849 12.8262 84.5594 13.2358 84.5338 13.5303H74.7804C75.0488 15.4504 76.2632 16.628 78.1423 16.628C79.6507 16.628 80.6478 16.0392 80.9418 14.8743H84.6105V14.8871ZM74.8315 11.1621H80.8395C80.7373 9.6516 79.6763 8.43553 77.8739 8.43553C76.1737 8.44833 75.1511 9.28038 74.8315 11.1621Z"/>
    <path d="M93.4691 19.4445L91.5644 25.0001H87.9724L89.9665 19.3933L85.0451 5.91406H88.8672L91.7178 14.6698L94.5556 5.91406H98.4033L93.4691 19.4445Z"/>
    <path d="M116.031 0.614258V19.5083H111.966V11.5974H104.207V19.5083H100.167V0.614258H104.207V8.11554H111.966V0.614258H116.031Z"/>
    <path d="M131.358 14.8871C130.821 17.8313 128.239 19.713 124.89 19.713C120.288 19.713 117.91 16.1032 117.91 12.6726C117.91 9.21637 120.007 5.68335 124.621 5.68335C129.415 5.68335 131.332 9.21637 131.332 12.3142C131.332 12.8262 131.307 13.2358 131.281 13.5303H121.528C121.796 15.4504 123.011 16.628 124.89 16.628C126.398 16.628 127.395 16.0392 127.689 14.8743H131.358V14.8871ZM121.579 11.1621H127.587C127.485 9.6516 126.424 8.44833 124.621 8.44833C122.921 8.44833 121.898 9.28038 121.579 11.1621Z"/>
    <path d="M137.2 0H133.454V19.4956H137.2V0Z"/>
    <path d="M139.603 5.9139H143.348V7.3988C144.154 6.34913 145.509 5.69629 147.247 5.69629C151.044 5.69629 153.472 8.47407 153.472 12.7111C153.472 16.9482 150.826 19.726 146.928 19.726C145.394 19.726 144.077 19.214 143.348 18.2923V25.0127H139.603V5.9139ZM149.778 12.7111C149.778 10.4198 148.436 8.90929 146.467 8.90929C144.448 8.90929 143.131 10.4198 143.131 12.7111C143.131 14.9769 144.448 16.4874 146.467 16.4874C148.436 16.4874 149.778 14.9769 149.778 12.7111Z"/>
    <path d="M168.262 14.8871C167.725 17.8313 165.143 19.713 161.794 19.713C157.192 19.713 154.815 16.1032 154.815 12.6726C154.815 9.21637 156.911 5.68335 161.526 5.68335C166.319 5.68335 168.237 9.21637 168.237 12.3142C168.237 12.8262 168.211 13.2358 168.186 13.5303H158.432C158.701 15.4504 159.915 16.628 161.794 16.628C163.303 16.628 164.3 16.0392 164.594 14.8743H168.262V14.8871ZM158.483 11.1621H164.491C164.389 9.6516 163.328 8.43553 161.526 8.43553C159.826 8.44833 158.803 9.28038 158.483 11.1621Z"/>
    <path d="M176.776 9.03746C174.922 9.03746 174.079 10.5736 174.079 12.8905V19.4957H170.308V5.91406H174.079V8.17981C174.807 6.4773 175.83 5.91406 177.479 5.91406H179.013V9.03746H176.776V9.03746Z"/>
</svg>