<svg xmlns="http://www.w3.org/2000/svg" fill="#18507a" viewBox="62.957 39 19.444 20.029">
  <defs/>
  <path d="M80.518 57.29l-1.286 1.325c-.23.236-.9.384-.92.384-4.07.03-7.99-1.62-10.868-4.59-2.887-2.98-4.487-7.03-4.444-11.24 0 0 .15-.68.38-.91l1.286-1.33c.47-.49 1.374-.71 2.007-.49l.27.09c.635.21 1.296.93 1.47 1.6l.648 2.45c.18.66-.06 1.61-.53 2.09l-.86.88c.85 3.22 3.29 5.75 6.42 6.62l.86-.89c.47-.48 1.39-.728 2.04-.548l2.38.67c.64.18 1.34.86 1.55 1.512l.09.274c.22.65 0 1.58-.47 2.07zM73.908 49h1.212c0-1.38-1.085-2.5-2.424-2.5v1.25c.668 0 1.212.56 1.212 1.25zm4.848 0c0-3.452-2.713-6.25-6.06-6.25V44c2.673 0 4.848 2.244 4.848 5h1.212zm-6.06-10v1.25c4.678 0 8.485 3.926 8.485 8.75h1.22c0-5.523-4.34-10-9.69-10z"/>
</svg>
