<svg xmlns="http://www.w3.org/2000/svg" viewBox="0 0 252.66 252.66">
  <defs>
    <style>
      .cls-1{
          fill: none;
          stroke-linecap: round;
          stroke-linejoin: round;
          stroke-width: 17.5px
      }
    </style>
  </defs>
  <path d="M108.4 165.42c-.09-4.83-.13-7.78-.13-8.83q0-16.35 5.4-26.9T135.29 106q16.22-13.17 19.38-17.27a23.09 23.09 0 004.88-14.24q0-10.8-8.63-18.52t-23.27-7.71q-14.12 0-23.6 8T91 80.78l-34-4.22Q58.44 53 77.09 36.49t49-16.49q31.91 0 50.73 16.68t18.86 38.83a42.64 42.64 0 01-6.93 23.2q-6.92 11-29.59 29.8-11.74 9.75-14.57 15.69T142 165.42" class="cls-1"/>
  <circle cx="125.94" cy="211.65" r="21" class="cls-1"/>
</svg>
